<svg id="svg" version="1.1" xmlns="http://www.w3.org/2000/svg" xmlns:xlink="http://www.w3.org/1999/xlink" width="400" height="400" viewBox="0, 0, 400,400"><g id="svgg"><path id="path0" d="M149.325 94.915 C 148.429 95.413,147.274 97.012,139.013 109.200 C 134.260 116.212,122.611 133.344,114.943 144.600 C 112.695 147.900,108.418 154.200,105.439 158.600 C 102.461 163.000,97.689 170.020,94.835 174.200 C 78.536 198.074,78.260 198.509,79.033 199.074 C 79.609 199.495,84.562 199.600,103.854 199.600 L 127.955 199.600 128.934 198.700 C 129.472 198.205,133.383 192.670,137.626 186.400 C 147.736 171.456,171.827 136.025,195.077 101.906 C 199.311 95.692,199.535 95.257,198.758 94.766 C 197.844 94.187,150.376 94.330,149.325 94.915 M246.024 95.500 C 244.959 96.486,241.661 101.254,223.409 128.200 C 220.577 132.380,217.330 137.150,216.193 138.800 C 215.056 140.450,210.829 146.660,206.799 152.600 C 202.769 158.540,198.363 165.020,197.009 167.000 C 195.654 168.980,189.532 177.980,183.404 187.000 C 177.277 196.020,168.276 209.250,163.403 216.400 C 158.530 223.550,152.408 232.550,149.799 236.400 C 144.339 244.458,133.596 260.256,129.398 266.400 C 107.079 299.069,105.200 301.944,105.200 303.424 C 105.200 305.583,105.398 305.600,130.478 305.600 L 153.236 305.600 154.128 304.700 C 155.064 303.755,155.400 303.268,174.823 274.672 C 187.125 256.560,194.880 245.165,202.971 233.313 C 205.407 229.745,210.541 222.185,214.381 216.513 C 218.220 210.841,222.810 204.090,224.581 201.512 C 226.351 198.933,230.680 192.579,234.200 187.391 C 237.720 182.203,242.768 174.773,245.418 170.879 C 248.067 166.986,255.717 155.736,262.418 145.881 C 280.885 118.716,283.357 115.086,289.200 106.546 C 296.191 96.328,296.785 95.301,296.000 94.797 C 295.633 94.562,286.052 94.410,271.306 94.406 L 247.213 94.400 246.024 95.500 M270.285 202.500 C 269.532 203.435,265.441 209.330,261.193 215.600 C 256.945 221.870,252.177 228.890,250.599 231.200 C 249.020 233.510,244.251 240.530,240.000 246.800 C 235.749 253.070,231.158 259.820,229.798 261.800 C 228.439 263.780,223.905 270.440,219.723 276.600 C 215.541 282.760,209.758 291.267,206.872 295.503 C 200.550 304.784,200.545 304.793,201.259 305.245 C 202.038 305.738,249.869 305.698,250.794 305.203 C 251.522 304.814,253.256 302.391,261.676 290.000 C 263.994 286.590,272.623 273.900,280.853 261.800 C 289.082 249.700,297.220 237.730,298.936 235.200 C 300.652 232.670,303.715 228.170,305.743 225.200 C 318.471 206.560,321.530 201.884,321.333 201.369 C 321.147 200.885,317.408 200.800,296.384 200.800 L 271.654 200.800 270.285 202.500 " stroke="none" fill="#fbfafa" fill-rule="evenodd"></path><path id="path1" d="M193.264 4.809 C 190.989 6.124,188.977 7.200,188.792 7.200 C 188.608 7.200,188.201 7.457,187.887 7.770 C 187.573 8.084,186.705 8.620,185.958 8.962 C 185.211 9.304,184.330 9.759,184.000 9.973 C 183.670 10.187,181.420 11.459,179.000 12.800 C 176.580 14.141,174.330 15.409,174.000 15.620 C 173.670 15.830,173.029 16.164,172.576 16.362 C 172.123 16.560,168.793 18.409,165.176 20.471 C 161.559 22.533,158.150 24.439,157.600 24.707 C 157.050 24.975,156.330 25.368,156.000 25.580 C 154.718 26.404,144.021 32.400,143.833 32.400 C 143.723 32.400,140.791 34.036,137.317 36.036 C 133.843 38.036,130.460 39.927,129.800 40.239 C 129.140 40.551,127.880 41.246,127.000 41.784 C 126.120 42.322,125.130 42.890,124.800 43.046 C 124.470 43.202,122.364 44.380,120.121 45.665 C 117.878 46.949,115.967 48.000,115.876 48.000 C 115.784 48.000,112.670 49.733,108.955 51.850 C 105.240 53.968,101.210 56.229,100.000 56.874 C 98.790 57.520,97.080 58.475,96.200 58.996 C 95.320 59.518,94.060 60.227,93.400 60.573 C 92.740 60.918,91.480 61.616,90.600 62.126 C 89.720 62.635,87.560 63.831,85.800 64.784 C 84.040 65.738,79.990 67.994,76.800 69.797 C 67.435 75.091,67.065 75.299,65.600 76.077 C 64.830 76.486,62.940 77.539,61.400 78.417 C 59.860 79.294,57.430 80.645,56.000 81.420 C 54.570 82.194,52.680 83.265,51.800 83.799 C 50.920 84.334,49.620 85.049,48.911 85.387 C 47.726 85.952,41.400 89.529,40.000 90.426 C 39.670 90.637,38.680 91.166,37.800 91.600 C 36.920 92.034,35.930 92.566,35.600 92.782 C 35.270 92.998,32.712 94.458,29.916 96.026 C 23.889 99.407,22.638 100.441,22.902 101.820 C 23.005 102.359,22.932 102.800,22.741 102.800 C 21.892 102.800,22.536 299.045,23.387 299.986 C 24.121 300.797,29.046 303.827,33.200 306.024 C 35.291 307.130,43.118 311.465,44.000 312.005 C 44.330 312.208,45.590 312.896,46.800 313.535 C 48.010 314.175,52.029 316.431,55.731 318.549 C 59.434 320.667,62.548 322.400,62.653 322.400 C 62.757 322.400,64.678 323.451,66.921 324.735 C 69.164 326.020,71.270 327.198,71.600 327.354 C 71.930 327.510,72.920 328.078,73.800 328.616 C 74.680 329.154,75.963 329.859,76.651 330.182 C 77.340 330.506,79.870 331.921,82.275 333.327 C 84.679 334.733,88.256 336.742,90.223 337.792 C 93.520 339.551,101.396 343.963,102.800 344.837 C 103.130 345.042,104.120 345.568,105.000 346.006 C 105.880 346.444,107.230 347.180,108.000 347.642 C 108.770 348.103,111.650 349.730,114.400 351.257 C 117.150 352.783,119.670 354.204,120.000 354.413 C 120.330 354.623,121.770 355.423,123.200 356.191 C 124.630 356.959,127.060 358.306,128.600 359.183 C 130.140 360.061,132.030 361.114,132.800 361.523 C 134.292 362.315,134.979 362.701,144.004 367.809 C 147.196 369.616,151.246 371.876,153.004 372.831 C 154.762 373.786,156.920 374.979,157.800 375.483 C 158.680 375.988,159.940 376.682,160.600 377.027 C 161.260 377.373,162.520 378.082,163.400 378.604 C 164.280 379.125,165.990 380.080,167.200 380.725 C 168.410 381.370,172.429 383.631,176.131 385.749 C 179.834 387.867,182.948 389.600,183.053 389.600 C 183.239 389.600,191.227 394.066,192.400 394.826 C 192.730 395.040,193.450 395.437,194.000 395.709 C 194.550 395.981,195.504 396.544,196.120 396.960 C 198.527 398.589,201.990 398.063,206.800 395.336 C 209.110 394.027,211.270 392.822,211.600 392.659 C 211.930 392.495,212.920 391.931,213.800 391.405 C 214.680 390.878,216.480 389.877,217.800 389.180 C 219.120 388.482,221.690 387.032,223.511 385.957 C 225.332 384.881,227.402 383.726,228.111 383.388 C 228.820 383.051,230.210 382.317,231.200 381.757 C 232.190 381.197,235.070 379.575,237.600 378.153 C 240.130 376.731,242.470 375.393,242.800 375.181 C 243.130 374.968,243.850 374.573,244.400 374.303 C 244.950 374.033,246.930 372.934,248.800 371.861 C 250.670 370.787,253.370 369.288,254.800 368.530 C 256.230 367.771,258.120 366.725,259.000 366.203 C 259.880 365.682,261.230 364.919,262.000 364.508 C 262.770 364.097,264.636 363.049,266.147 362.180 C 267.658 361.311,270.088 359.952,271.547 359.160 C 273.006 358.369,276.450 356.467,279.200 354.934 C 281.950 353.401,284.470 352.015,284.800 351.854 C 285.130 351.693,286.120 351.127,287.000 350.594 C 287.880 350.062,289.770 348.986,291.200 348.203 C 292.630 347.420,294.520 346.370,295.400 345.872 C 296.280 345.373,298.170 344.325,299.600 343.544 C 301.030 342.763,302.920 341.709,303.800 341.203 C 304.680 340.696,306.390 339.742,307.600 339.083 C 308.810 338.423,310.970 337.214,312.400 336.396 C 316.151 334.252,318.799 332.772,320.400 331.927 C 321.170 331.521,322.070 331.017,322.400 330.807 C 323.102 330.361,331.119 325.894,332.000 325.459 C 332.330 325.295,333.320 324.731,334.200 324.205 C 335.080 323.679,336.970 322.630,338.400 321.874 C 339.830 321.118,341.900 319.971,343.000 319.326 C 344.100 318.680,345.270 318.028,345.600 317.878 C 345.930 317.727,347.100 317.077,348.200 316.432 C 349.300 315.787,351.029 314.817,352.042 314.276 C 353.972 313.244,362.166 308.630,363.200 307.993 C 363.530 307.789,364.698 307.153,365.796 306.580 C 370.830 303.949,375.556 301.099,376.436 300.162 L 377.400 299.136 377.503 200.542 C 377.565 141.019,377.461 102.038,377.240 102.175 C 377.039 102.299,376.968 102.042,377.083 101.604 C 377.303 100.764,375.400 98.647,373.811 97.964 C 373.365 97.772,372.100 97.072,371.000 96.408 C 369.900 95.744,367.920 94.640,366.600 93.956 C 365.280 93.271,363.480 92.287,362.600 91.769 C 361.720 91.251,359.830 90.190,358.400 89.411 C 356.970 88.632,355.530 87.817,355.200 87.601 C 354.518 87.154,342.761 80.605,338.744 78.435 C 337.283 77.646,335.033 76.388,333.744 75.639 C 332.455 74.890,330.050 73.558,328.400 72.678 C 326.750 71.798,324.971 70.745,324.446 70.339 C 323.921 69.932,323.323 69.600,323.116 69.600 C 322.909 69.600,321.538 68.905,320.070 68.055 C 316.698 66.104,313.796 64.475,312.000 63.527 C 311.230 63.121,310.330 62.619,310.000 62.411 C 309.670 62.203,307.330 60.869,304.800 59.447 C 302.270 58.025,299.390 56.403,298.400 55.843 C 297.410 55.283,296.020 54.549,295.311 54.212 C 294.602 53.874,292.532 52.719,290.711 51.643 C 288.890 50.568,286.320 49.118,285.000 48.420 C 283.680 47.723,281.930 46.758,281.111 46.276 C 279.770 45.487,277.169 44.041,273.200 41.876 C 272.430 41.456,271.080 40.692,270.200 40.178 C 269.320 39.664,267.771 38.804,266.758 38.267 C 265.745 37.730,263.039 36.208,260.746 34.884 C 258.453 33.561,255.502 31.911,254.188 31.219 C 252.875 30.527,251.080 29.544,250.200 29.034 C 248.201 27.875,243.853 25.459,242.000 24.477 C 241.230 24.069,239.880 23.319,239.000 22.811 C 238.120 22.303,236.590 21.436,235.600 20.886 C 234.610 20.335,232.432 19.100,230.761 18.142 C 229.089 17.184,227.573 16.400,227.392 16.400 C 227.211 16.400,226.779 16.155,226.431 15.856 C 226.084 15.557,224.720 14.717,223.400 13.991 C 217.929 10.978,215.345 9.581,214.400 9.127 C 213.850 8.862,213.130 8.436,212.800 8.181 C 212.470 7.925,210.580 6.853,208.600 5.798 C 206.620 4.744,204.571 3.548,204.046 3.140 C 201.900 1.475,197.983 2.081,193.264 4.809 M200.400 92.923 C 203.413 93.950,204.663 91.783,181.147 126.288 C 161.726 154.783,148.079 174.857,138.673 188.762 C 134.893 194.350,131.323 199.435,130.740 200.062 L 129.679 201.200 103.440 201.200 C 77.515 201.200,77.190 201.190,76.380 200.380 C 75.079 199.079,74.215 200.544,89.326 178.400 C 91.653 174.990,95.262 169.680,97.346 166.600 C 101.966 159.774,111.948 145.083,120.728 132.187 C 124.318 126.914,131.475 116.390,136.632 108.800 C 146.568 94.177,147.500 92.953,148.909 92.681 C 151.202 92.238,199.051 92.462,200.400 92.923 M298.539 93.149 C 300.121 94.463,300.278 94.197,282.543 120.200 C 280.292 123.500,275.277 130.880,271.397 136.600 C 267.518 142.320,261.825 150.690,258.746 155.200 C 255.668 159.710,251.260 166.190,248.952 169.600 C 246.643 173.010,241.627 180.390,237.805 186.000 C 233.983 191.610,228.963 198.990,226.651 202.400 C 224.338 205.810,219.928 212.290,216.850 216.800 C 213.772 221.310,209.854 227.070,208.142 229.600 C 204.126 235.536,187.693 259.699,185.018 263.600 C 183.887 265.250,176.868 275.564,169.420 286.521 C 160.142 300.171,155.527 306.624,154.760 307.021 C 153.821 307.506,149.966 307.600,130.898 307.600 L 108.157 307.600 106.091 306.570 C 104.350 305.703,103.985 305.325,103.768 304.170 C 103.186 301.068,103.302 300.845,112.595 287.200 C 116.897 280.883,122.664 272.401,126.464 266.800 C 128.330 264.050,135.064 254.152,141.428 244.805 C 147.793 235.459,154.620 225.426,156.600 222.510 C 158.580 219.595,161.275 215.632,162.589 213.705 C 167.392 206.657,181.996 185.182,187.414 177.200 C 190.475 172.690,194.604 166.614,196.590 163.699 C 198.575 160.783,205.003 151.333,210.873 142.699 C 216.743 134.064,224.548 122.590,228.218 117.200 C 231.888 111.810,236.839 104.517,239.221 100.993 C 243.689 94.381,244.830 93.022,246.200 92.681 C 248.291 92.160,297.882 92.604,298.539 93.149 M377.100 248.300 C 377.043 274.865,376.997 253.130,376.997 200.000 C 376.997 146.870,377.043 125.135,377.100 151.700 C 377.157 178.265,377.157 221.735,377.100 248.300 M323.832 199.776 C 324.145 200.204,324.400 200.787,324.400 201.073 C 324.400 201.647,320.434 207.543,286.244 257.800 C 277.115 271.220,267.160 285.854,264.123 290.321 C 254.084 305.082,253.005 306.574,251.998 307.083 C 250.623 307.779,200.947 307.832,199.427 307.139 C 197.204 306.127,197.619 304.987,203.076 297.121 C 205.014 294.328,208.340 289.468,210.466 286.321 C 212.593 283.175,216.293 277.720,218.688 274.200 C 221.083 270.680,226.347 262.940,230.386 257.000 C 234.424 251.060,238.836 244.580,240.190 242.600 C 241.544 240.620,248.548 230.318,255.755 219.706 C 262.962 209.094,269.324 200.046,269.894 199.598 C 271.475 198.354,322.917 198.524,323.832 199.776 " stroke="none" fill="#ec3324" fill-rule="evenodd"></path><path id="path2" d="M148.462 93.749 C 147.515 94.274,145.673 96.861,134.416 113.474 C 131.016 118.493,126.426 125.248,124.216 128.485 C 122.007 131.721,115.639 141.081,110.065 149.285 C 104.491 157.488,96.686 168.970,92.721 174.800 C 88.756 180.630,83.537 188.309,81.124 191.866 C 76.482 198.704,76.046 199.903,78.000 200.444 C 79.945 200.982,128.106 200.836,129.187 200.289 C 129.730 200.014,132.136 196.911,134.532 193.394 C 138.754 187.199,144.075 179.372,165.799 147.400 C 171.479 139.040,177.417 130.310,178.994 128.000 C 180.572 125.690,185.340 118.670,189.591 112.400 C 193.842 106.130,197.900 100.190,198.608 99.200 C 203.203 92.780,204.886 93.197,174.456 93.214 C 154.659 93.225,149.203 93.338,148.462 93.749 M245.026 94.500 C 244.277 95.215,239.212 102.370,233.771 110.400 C 228.329 118.430,222.404 127.160,220.603 129.800 C 218.803 132.440,214.213 139.190,210.404 144.800 C 206.595 150.410,202.005 157.160,200.204 159.800 C 198.402 162.440,190.750 173.690,183.199 184.800 C 175.648 195.910,167.999 207.160,166.201 209.800 C 164.403 212.440,159.506 219.640,155.320 225.800 C 151.133 231.960,145.804 239.790,143.478 243.200 C 141.152 246.610,137.538 251.920,135.447 255.000 C 133.355 258.080,128.642 265.010,124.973 270.400 C 106.749 297.173,104.400 300.774,104.436 301.889 C 104.470 302.948,104.491 302.936,104.867 301.625 C 105.084 300.869,108.263 295.822,111.931 290.411 C 120.910 277.164,131.167 262.076,139.400 250.005 C 143.140 244.521,148.983 235.932,152.384 230.917 C 155.784 225.903,160.374 219.154,162.584 215.921 C 166.222 210.595,187.936 178.664,207.139 150.400 C 211.250 144.350,216.696 136.340,219.241 132.600 C 221.787 128.860,226.989 121.210,230.801 115.600 C 234.614 109.990,239.188 103.261,240.967 100.647 C 242.745 98.032,244.677 95.377,245.260 94.747 L 246.321 93.600 271.328 93.600 C 285.082 93.600,296.619 93.709,296.967 93.843 C 298.303 94.355,297.392 96.139,290.950 105.616 C 280.568 120.891,275.524 128.308,269.200 137.600 C 259.941 151.203,253.573 160.569,245.604 172.302 C 241.532 178.298,229.110 196.561,218.000 212.886 C 206.890 229.211,195.902 245.365,193.582 248.784 C 189.324 255.059,177.429 272.546,171.396 281.400 C 169.597 284.040,165.379 290.250,162.022 295.200 C 158.666 300.150,155.454 304.695,154.885 305.300 L 153.850 306.400 130.825 306.391 C 108.946 306.383,107.715 306.344,106.100 305.611 C 105.165 305.186,104.400 304.929,104.400 305.039 C 104.400 306.596,107.216 306.782,130.878 306.791 L 153.955 306.800 154.953 305.900 C 155.502 305.405,158.690 300.950,162.038 296.000 C 165.386 291.050,169.597 284.840,171.396 282.200 C 173.194 279.560,177.786 272.810,181.600 267.200 C 185.414 261.590,190.006 254.840,191.804 252.200 C 196.226 245.707,206.290 230.905,215.193 217.800 C 219.228 211.860,223.639 205.380,224.995 203.400 C 250.563 166.070,298.184 95.620,298.315 94.932 C 298.634 93.262,297.675 93.200,271.368 93.200 L 246.388 93.200 245.026 94.500 M199.920 94.080 C 200.819 94.979,200.400 95.835,195.700 102.687 C 193.115 106.455,188.516 113.198,185.479 117.669 C 182.443 122.141,175.333 132.596,169.679 140.901 C 164.026 149.207,152.861 165.630,144.869 177.397 C 136.877 189.163,129.873 199.157,129.304 199.604 C 128.031 200.605,78.541 200.702,77.545 199.705 C 76.807 198.967,77.082 198.519,89.000 181.029 C 110.425 149.585,114.149 144.115,119.503 136.220 C 122.494 131.809,127.576 124.330,130.797 119.600 C 134.018 114.870,138.957 107.580,141.773 103.400 C 144.588 99.220,147.414 95.305,148.052 94.700 L 149.213 93.600 174.326 93.600 C 193.326 93.600,199.557 93.717,199.920 94.080 M269.915 200.700 C 269.346 201.305,266.311 205.580,263.171 210.200 C 260.031 214.820,254.406 223.100,250.670 228.600 C 246.934 234.100,242.404 240.760,240.603 243.400 C 238.803 246.040,232.502 255.310,226.601 264.000 C 220.701 272.690,214.583 281.690,213.007 284.000 C 198.563 305.167,198.550 305.190,199.680 306.320 C 200.043 306.683,206.363 306.800,225.674 306.800 L 251.187 306.800 252.355 305.700 C 252.997 305.095,256.989 299.470,261.225 293.200 C 265.461 286.930,270.401 279.640,272.203 277.000 C 274.005 274.360,278.233 268.150,281.600 263.200 C 284.966 258.250,289.374 251.770,291.396 248.800 C 293.418 245.830,298.189 238.810,301.999 233.200 C 305.808 227.590,310.219 221.110,311.799 218.800 C 323.602 201.551,324.214 200.475,322.567 199.843 C 322.219 199.709,310.463 199.600,296.442 199.600 L 270.950 199.600 269.915 200.700 M322.396 200.595 C 323.153 201.507,325.378 198.103,291.796 247.400 C 289.998 250.040,285.410 256.790,281.600 262.400 C 277.790 268.010,273.202 274.760,271.403 277.400 C 269.605 280.040,264.839 287.060,260.813 293.000 C 256.786 298.940,252.941 304.385,252.268 305.100 L 251.043 306.400 225.771 306.400 C 203.890 306.400,200.432 306.320,200.004 305.805 C 199.227 304.869,197.822 307.073,219.344 275.485 C 227.405 263.655,236.889 249.696,243.317 240.200 C 245.700 236.680,249.491 231.100,251.741 227.800 C 253.991 224.500,258.941 217.210,262.742 211.600 C 266.542 205.990,270.020 201.085,270.470 200.700 C 271.629 199.709,321.577 199.608,322.396 200.595 " stroke="none" fill="#f4786f" fill-rule="evenodd"></path><path id="path3" d="M148.052 94.700 C 147.414 95.305,144.588 99.220,141.773 103.400 C 138.957 107.580,134.018 114.870,130.797 119.600 C 127.576 124.330,122.494 131.809,119.503 136.220 C 114.149 144.115,110.425 149.585,89.000 181.029 C 77.082 198.519,76.807 198.967,77.545 199.705 C 78.541 200.702,128.031 200.605,129.304 199.604 C 129.873 199.157,136.877 189.163,144.869 177.397 C 152.861 165.630,164.026 149.207,169.679 140.901 C 175.333 132.596,182.443 122.141,185.479 117.669 C 188.516 113.198,193.115 106.455,195.700 102.687 C 198.285 98.918,200.400 95.548,200.400 95.197 C 200.400 93.604,200.327 93.600,174.326 93.600 L 149.213 93.600 148.052 94.700 M245.260 94.747 C 244.677 95.377,242.745 98.032,240.967 100.647 C 239.188 103.261,234.614 109.990,230.801 115.600 C 226.989 121.210,221.787 128.860,219.241 132.600 C 216.696 136.340,211.250 144.350,207.139 150.400 C 187.936 178.664,166.222 210.595,162.584 215.921 C 160.374 219.154,155.784 225.903,152.384 230.917 C 148.983 235.932,143.140 244.521,139.400 250.005 C 131.175 262.064,120.915 277.156,111.945 290.389 C 103.769 302.453,103.082 304.241,106.100 305.611 C 107.715 306.344,108.946 306.383,130.825 306.391 L 153.850 306.400 154.885 305.300 C 155.454 304.695,158.666 300.150,162.022 295.200 C 165.379 290.250,169.597 284.040,171.396 281.400 C 177.429 272.546,189.324 255.059,193.582 248.784 C 195.902 245.365,206.890 229.211,218.000 212.886 C 229.110 196.561,241.532 178.298,245.604 172.302 C 253.573 160.569,259.941 151.203,269.200 137.600 C 272.419 132.870,277.134 125.940,279.677 122.200 C 299.140 93.574,298.595 94.468,296.967 93.843 C 296.619 93.709,285.082 93.600,271.328 93.600 L 246.321 93.600 245.260 94.747 M198.758 94.766 C 199.535 95.257,199.311 95.692,195.077 101.906 C 171.827 136.025,147.736 171.456,137.626 186.400 C 133.383 192.670,129.472 198.205,128.934 198.700 L 127.955 199.600 103.854 199.600 C 84.562 199.600,79.609 199.495,79.033 199.074 C 78.260 198.509,78.536 198.074,94.835 174.200 C 97.689 170.020,102.461 163.000,105.439 158.600 C 108.418 154.200,112.695 147.900,114.943 144.600 C 122.611 133.344,134.260 116.212,139.013 109.200 C 147.274 97.012,148.429 95.413,149.325 94.915 C 150.376 94.330,197.844 94.187,198.758 94.766 M296.000 94.797 C 296.785 95.301,296.191 96.328,289.200 106.546 C 283.357 115.086,280.885 118.716,262.418 145.881 C 255.717 155.736,248.067 166.986,245.418 170.879 C 242.768 174.773,237.720 182.203,234.200 187.391 C 230.680 192.579,226.351 198.933,224.581 201.512 C 222.810 204.090,218.220 210.841,214.381 216.513 C 210.541 222.185,205.407 229.745,202.971 233.313 C 194.880 245.165,187.125 256.560,174.823 274.672 C 155.400 303.268,155.064 303.755,154.128 304.700 L 153.236 305.600 130.478 305.600 C 105.398 305.600,105.200 305.583,105.200 303.424 C 105.200 301.944,107.079 299.069,129.398 266.400 C 133.596 260.256,144.339 244.458,149.799 236.400 C 152.408 232.550,158.530 223.550,163.403 216.400 C 168.276 209.250,177.277 196.020,183.404 187.000 C 189.532 177.980,195.654 168.980,197.009 167.000 C 198.363 165.020,202.769 158.540,206.799 152.600 C 210.829 146.660,215.056 140.450,216.193 138.800 C 217.330 137.150,220.577 132.380,223.409 128.200 C 241.661 101.254,244.959 96.486,246.024 95.500 L 247.213 94.400 271.306 94.406 C 286.052 94.410,295.633 94.562,296.000 94.797 M270.470 200.700 C 270.020 201.085,266.542 205.990,262.742 211.600 C 258.941 217.210,253.991 224.500,251.741 227.800 C 249.491 231.100,245.700 236.680,243.317 240.200 C 236.889 249.696,227.405 263.655,219.344 275.485 C 197.822 307.073,199.227 304.869,200.004 305.805 C 200.432 306.320,203.890 306.400,225.771 306.400 L 251.043 306.400 252.268 305.100 C 252.941 304.385,256.786 298.940,260.813 293.000 C 264.839 287.060,269.605 280.040,271.403 277.400 C 273.202 274.760,277.790 268.010,281.600 262.400 C 285.410 256.790,289.998 250.040,291.796 247.400 C 325.378 198.103,323.153 201.507,322.396 200.595 C 321.577 199.608,271.629 199.709,270.470 200.700 M321.333 201.369 C 321.530 201.884,318.471 206.560,305.743 225.200 C 303.715 228.170,300.652 232.670,298.936 235.200 C 297.220 237.730,289.082 249.700,280.853 261.800 C 272.623 273.900,263.994 286.590,261.676 290.000 C 253.256 302.391,251.522 304.814,250.794 305.203 C 249.869 305.698,202.038 305.738,201.259 305.245 C 200.545 304.793,200.550 304.784,206.872 295.503 C 209.758 291.267,215.541 282.760,219.723 276.600 C 223.905 270.440,228.439 263.780,229.798 261.800 C 231.158 259.820,235.749 253.070,240.000 246.800 C 244.251 240.530,249.020 233.510,250.599 231.200 C 252.177 228.890,256.945 221.870,261.193 215.600 C 265.441 209.330,269.532 203.435,270.285 202.500 L 271.654 200.800 296.384 200.800 C 317.408 200.800,321.147 200.885,321.333 201.369 " stroke="none" fill="#f48c84" fill-rule="evenodd"></path><path id="path4" d="M148.909 92.681 C 147.500 92.953,146.568 94.177,136.632 108.800 C 131.475 116.390,124.318 126.914,120.728 132.187 C 111.948 145.083,101.966 159.774,97.346 166.600 C 95.262 169.680,91.653 174.990,89.326 178.400 C 74.215 200.544,75.079 199.079,76.380 200.380 C 77.190 201.190,77.515 201.200,103.440 201.200 L 129.679 201.200 130.740 200.062 C 131.323 199.435,134.893 194.350,138.673 188.762 C 148.079 174.857,161.726 154.783,181.147 126.288 C 204.663 91.783,203.413 93.950,200.400 92.923 C 199.051 92.462,151.202 92.238,148.909 92.681 M246.200 92.681 C 244.830 93.022,243.689 94.381,239.221 100.993 C 236.839 104.517,231.888 111.810,228.218 117.200 C 224.548 122.590,216.743 134.064,210.873 142.699 C 205.003 151.333,198.575 160.783,196.590 163.699 C 194.604 166.614,190.475 172.690,187.414 177.200 C 181.996 185.182,167.392 206.657,162.589 213.705 C 161.275 215.632,158.580 219.595,156.600 222.510 C 154.620 225.426,147.793 235.459,141.428 244.805 C 135.064 254.152,128.330 264.050,126.464 266.800 C 122.664 272.401,116.897 280.883,112.595 287.200 C 103.302 300.845,103.186 301.068,103.768 304.170 C 103.985 305.325,104.350 305.703,106.091 306.570 L 108.157 307.600 130.898 307.600 C 149.966 307.600,153.821 307.506,154.760 307.021 C 155.527 306.624,160.142 300.171,169.420 286.521 C 176.868 275.564,183.887 265.250,185.018 263.600 C 187.693 259.699,204.126 235.536,208.142 229.600 C 209.854 227.070,213.772 221.310,216.850 216.800 C 219.928 212.290,224.338 205.810,226.651 202.400 C 228.963 198.990,233.983 191.610,237.805 186.000 C 241.627 180.390,246.643 173.010,248.952 169.600 C 251.260 166.190,255.668 159.710,258.746 155.200 C 261.825 150.690,267.518 142.320,271.397 136.600 C 275.277 130.880,280.292 123.500,282.543 120.200 C 300.278 94.197,300.121 94.463,298.539 93.149 C 297.882 92.604,248.291 92.160,246.200 92.681 M200.405 93.924 C 201.438 94.760,201.123 95.686,198.608 99.200 C 197.900 100.190,193.842 106.130,189.591 112.400 C 185.340 118.670,180.572 125.690,178.994 128.000 C 177.417 130.310,171.479 139.040,165.799 147.400 C 144.075 179.372,138.754 187.199,134.532 193.394 C 132.136 196.911,129.730 200.014,129.187 200.289 C 128.106 200.836,79.945 200.982,78.000 200.444 C 76.046 199.903,76.482 198.704,81.124 191.866 C 83.537 188.309,88.756 180.630,92.721 174.800 C 96.686 168.970,104.491 157.488,110.065 149.285 C 115.639 141.081,122.007 131.721,124.216 128.485 C 126.426 125.248,131.016 118.493,134.416 113.474 C 145.673 96.861,147.515 94.274,148.462 93.749 C 150.150 92.812,199.237 92.978,200.405 93.924 M297.419 93.607 C 298.246 93.922,298.450 94.224,298.315 94.932 C 298.184 95.620,250.563 166.070,224.995 203.400 C 223.639 205.380,219.228 211.860,215.193 217.800 C 206.290 230.905,196.226 245.707,191.804 252.200 C 190.006 254.840,185.414 261.590,181.600 267.200 C 177.786 272.810,173.194 279.560,171.396 282.200 C 169.597 284.840,165.386 291.050,162.038 296.000 C 158.690 300.950,155.502 305.405,154.953 305.900 L 153.955 306.800 130.986 306.800 C 103.404 306.800,103.843 306.872,104.312 302.415 C 104.509 300.545,105.531 298.962,124.973 270.400 C 128.642 265.010,133.355 258.080,135.447 255.000 C 137.538 251.920,141.152 246.610,143.478 243.200 C 145.804 239.790,151.133 231.960,155.320 225.800 C 159.506 219.640,164.403 212.440,166.201 209.800 C 167.999 207.160,175.648 195.910,183.199 184.800 C 190.750 173.690,198.402 162.440,200.204 159.800 C 202.005 157.160,206.595 150.410,210.404 144.800 C 214.213 139.190,218.803 132.440,220.603 129.800 C 222.404 127.160,228.329 118.430,233.771 110.400 C 239.212 102.370,244.277 95.215,245.026 94.500 L 246.388 93.200 271.368 93.200 C 287.352 93.200,296.734 93.347,297.419 93.607 M376.997 200.000 C 376.997 253.130,377.043 274.865,377.100 248.300 C 377.157 221.735,377.157 178.265,377.100 151.700 C 377.043 125.135,376.997 146.870,376.997 200.000 M269.894 199.598 C 269.324 200.046,262.962 209.094,255.755 219.706 C 248.548 230.318,241.544 240.620,240.190 242.600 C 238.836 244.580,234.424 251.060,230.386 257.000 C 226.347 262.940,221.083 270.680,218.688 274.200 C 216.293 277.720,212.593 283.175,210.466 286.321 C 208.340 289.468,205.014 294.328,203.076 297.121 C 197.619 304.987,197.204 306.127,199.427 307.139 C 200.947 307.832,250.623 307.779,251.998 307.083 C 253.005 306.574,254.084 305.082,264.123 290.321 C 267.160 285.854,277.115 271.220,286.244 257.800 C 320.434 207.543,324.400 201.647,324.400 201.073 C 324.400 198.920,325.521 199.009,297.097 198.892 C 271.297 198.785,270.915 198.795,269.894 199.598 M322.567 199.843 C 324.214 200.475,323.602 201.551,311.799 218.800 C 310.219 221.110,305.808 227.590,301.999 233.200 C 298.189 238.810,293.418 245.830,291.396 248.800 C 289.374 251.770,284.966 258.250,281.600 263.200 C 278.233 268.150,274.005 274.360,272.203 277.000 C 270.401 279.640,265.461 286.930,261.225 293.200 C 256.989 299.470,252.997 305.095,252.355 305.700 L 251.187 306.800 225.674 306.800 C 206.363 306.800,200.043 306.683,199.680 306.320 C 198.550 305.190,198.563 305.167,213.007 284.000 C 214.583 281.690,220.701 272.690,226.601 264.000 C 232.502 255.310,238.803 246.040,240.603 243.400 C 242.404 240.760,246.934 234.100,250.670 228.600 C 254.406 223.100,260.031 214.820,263.171 210.200 C 266.311 205.580,269.346 201.305,269.915 200.700 L 270.950 199.600 296.442 199.600 C 310.463 199.600,322.219 199.709,322.567 199.843 " stroke="none" fill="#f05247" fill-rule="evenodd"></path></g></svg>