<?xml version="1.0" encoding="UTF-8" standalone="no"?>
<svg
   xmlns:shaper="http://www.shapertools.com/namespaces/shaper"
   xmlns:dc="http://purl.org/dc/elements/1.1/"
   xmlns:cc="http://creativecommons.org/ns#"
   xmlns:rdf="http://www.w3.org/1999/02/22-rdf-syntax-ns#"
   xmlns:svg="http://www.w3.org/2000/svg"
   xmlns="http://www.w3.org/2000/svg"
   xmlns:sodipodi="http://sodipodi.sourceforge.net/DTD/sodipodi-0.dtd"
   xmlns:inkscape="http://www.inkscape.org/namespaces/inkscape"
   enable-background="new 0 0 3 1.5"
   height="256"
   shaper:fusionaddin="version:1.5.0"
   version="1.1"
   viewBox="0 0 6.7733336 6.7733335"
   width="256"
   x="0cm"
   xml:space="preserve"
   y="0cm"
   id="svg835"
   sodipodi:docname="sidebar-logoSaladFork.svg"
   inkscape:version="1.0.1 (3bc2e813f5, 2020-09-07)"><metadata
     id="metadata841"><rdf:RDF><cc:Work
         rdf:about=""><dc:format>image/svg+xml</dc:format><dc:type
           rdf:resource="http://purl.org/dc/dcmitype/StillImage" /><dc:title></dc:title></cc:Work></rdf:RDF></metadata><defs
     id="defs839" /><sodipodi:namedview
     pagecolor="#ffffff"
     bordercolor="#666666"
     borderopacity="1"
     objecttolerance="10"
     gridtolerance="10"
     guidetolerance="10"
     inkscape:pageopacity="0"
     inkscape:pageshadow="2"
     inkscape:window-width="1920"
     inkscape:window-height="1017"
     id="namedview837"
     showgrid="false"
     units="px"
     inkscape:zoom="4.1032465"
     inkscape:cx="91.710828"
     inkscape:cy="112.32337"
     inkscape:window-x="1912"
     inkscape:window-y="-8"
     inkscape:window-maximized="1"
     inkscape:current-layer="svg835"
     inkscape:document-rotation="0" /><path
     d="M 4.336538,3.8301995 A 0.22577778,0.22577778 0 0 0 4.4026667,3.6705506 V 0.28222222 A 0.28222222,0.28222222 0 0 1 4.684889,0 H 4.7977779 A 0.28222222,0.28222222 0 0 1 5.0800001,0.28222222 V 3.8301995 A 0.56444445,0.56444445 0 0 1 4.9146781,4.229322 L 4.4305449,4.7134554 A 1.6368889,1.6368889 0 0 0 3.9511112,5.8709107 V 6.7733334 H 2.8222223 V 5.8709107 A 1.6368889,1.6368889 0 0 0 2.3427886,4.7134554 L 1.8586553,4.229322 A 0.56444445,0.56444445 0 0 1 1.6933334,3.8301995 V 0.11288889 a 0.11288889,0.11288889 0 0 1 0.088831,-0.11029561 0.02257778,0.02257778 0 0 1 0.027111,0.0185273 0.78878402,0.78878402 0 0 0 0.4898888,0.61044509 0.11288889,0.11288889 0 0 1 0.071502,0.10502798 V 3.6705506 a 0.22577778,0.22577778 0 0 0 0.066128,0.1596489 l 0.033065,0.033064 A 0.33866667,0.33866667 0 0 0 3.0480001,3.6237905 V 0.28222222 A 0.28222222,0.28222222 0 0 1 3.3302223,0 H 3.4431112 A 0.28222222,0.28222222 0 0 1 3.7253334,0.28222222 V 3.6237905 a 0.33866667,0.33866667 0 0 0 0.5781401,0.2394734 z"
     fill="#000000"
     shaper:cutDepth="0.001"
     shaper:pathType="exterior"
     vector-effect="non-scaling-stroke"
     id="path833"
     style="fill:#d40000;fill-opacity:1;stroke-width:2.25778" /></svg>
