<svg id="svg" version="1.1" xmlns="http://www.w3.org/2000/svg" xmlns:xlink="http://www.w3.org/1999/xlink" width="400" height="348.45360824742266" viewBox="0, 0, 400,348.45360824742266"><g id="svgg"><path id="path0" d="M193.723 50.469 C 192.525 50.761,191.790 51.637,188.381 56.844 C 186.560 59.625,183.936 63.627,182.550 65.737 C 181.164 67.847,179.770 70.044,179.451 70.619 C 178.916 71.585,178.426 72.324,176.447 75.153 C 176.044 75.728,175.372 76.733,174.954 77.387 C 174.536 78.041,173.801 79.154,173.322 79.861 C 172.842 80.567,172.108 81.680,171.689 82.334 C 171.271 82.988,170.593 83.993,170.183 84.568 C 169.773 85.144,169.095 86.149,168.677 86.803 C 168.259 87.456,167.524 88.569,167.044 89.276 C 166.565 89.983,165.830 91.096,165.412 91.750 C 164.994 92.403,164.322 93.409,163.919 93.984 C 161.940 96.812,161.450 97.552,160.915 98.518 C 160.597 99.093,159.201 101.290,157.814 103.400 C 156.426 105.510,154.381 108.649,153.268 110.375 C 152.155 112.101,147.139 119.712,142.120 127.289 C 137.101 134.865,131.364 143.575,129.371 146.643 C 127.377 149.712,121.180 159.128,115.599 167.568 C 110.018 176.007,103.826 185.423,101.838 188.492 C 99.851 191.561,93.964 200.506,88.756 208.370 C 83.549 216.234,77.658 225.179,75.665 228.248 C 72.049 233.818,54.031 261.140,52.667 263.121 C 52.271 263.697,50.280 266.757,48.242 269.922 C 46.204 273.086,40.096 282.357,34.669 290.523 C 23.796 306.883,23.749 306.961,24.403 307.749 C 24.934 308.389,91.213 308.577,92.400 307.942 C 92.971 307.636,105.644 288.841,115.097 274.281 C 117.089 271.212,123.334 261.718,128.974 253.182 C 134.615 244.647,140.496 235.746,142.044 233.402 C 144.159 230.200,145.115 229.052,145.890 228.782 C 146.588 228.538,174.552 228.422,232.290 228.422 C 291.886 228.422,317.726 228.311,317.885 228.053 C 318.326 227.340,317.693 226.096,313.964 220.342 C 310.327 214.731,307.801 210.775,298.518 196.158 C 296.120 192.383,292.866 187.309,291.286 184.883 C 287.153 178.535,285.110 183.112,306.514 150.766 C 314.999 137.942,320.868 128.953,324.098 123.834 C 324.510 123.180,325.240 122.067,325.719 121.360 C 326.199 120.653,326.933 119.540,327.352 118.887 C 327.770 118.233,328.448 117.228,328.858 116.652 C 329.268 116.077,329.946 115.071,330.364 114.418 C 330.782 113.764,331.517 112.651,331.997 111.944 C 332.476 111.237,333.211 110.124,333.629 109.471 C 334.047 108.817,334.725 107.812,335.135 107.236 C 335.545 106.661,336.223 105.655,336.641 105.002 C 337.060 104.348,337.794 103.235,338.274 102.528 C 338.753 101.821,339.488 100.708,339.906 100.055 C 340.324 99.401,341.000 98.396,341.407 97.820 C 341.814 97.245,342.684 95.911,343.340 94.856 C 345.284 91.728,351.082 82.887,361.552 67.085 C 371.679 51.800,372.037 51.139,370.509 50.558 C 369.251 50.080,303.152 50.098,301.778 50.577 C 301.212 50.774,300.458 51.441,300.102 52.059 C 299.052 53.883,293.424 62.507,282.650 78.802 C 277.088 87.214,270.817 96.740,268.714 99.969 C 266.612 103.199,260.792 112.040,255.781 119.616 C 250.771 127.193,245.051 135.902,243.071 138.971 C 236.844 148.623,222.414 170.292,221.184 171.840 L 220.006 173.322 201.589 173.322 C 186.008 173.322,183.108 173.245,182.756 172.821 C 182.244 172.204,182.282 172.130,185.827 166.777 C 188.715 162.418,188.696 162.447,191.130 158.796 C 192.005 157.483,194.281 153.992,196.187 151.040 C 198.092 148.087,204.359 138.563,210.113 129.875 C 219.033 116.406,224.976 107.315,228.195 102.212 C 228.608 101.558,229.337 100.445,229.817 99.738 C 230.296 99.032,231.031 97.918,231.449 97.265 C 231.868 96.611,232.545 95.606,232.956 95.031 C 233.366 94.455,234.043 93.450,234.462 92.796 C 234.880 92.143,235.615 91.029,236.094 90.323 C 236.574 89.616,237.308 88.503,237.727 87.849 C 238.145 87.196,238.823 86.190,239.233 85.615 C 239.643 85.039,240.321 84.034,240.739 83.380 C 241.157 82.727,241.892 81.614,242.371 80.907 C 242.851 80.200,243.585 79.087,244.004 78.433 C 244.422 77.780,245.095 76.774,245.499 76.199 C 245.904 75.623,246.723 74.368,247.321 73.409 C 248.698 71.198,250.832 67.914,256.792 58.834 C 262.012 50.882,261.936 51.044,260.657 50.558 C 259.753 50.214,195.121 50.128,193.723 50.469 " stroke="none" fill="#d31b1b" fill-rule="evenodd"></path></g></svg>